# xmcd CD database file
#
# Track frame offsets:
#	150
#	16405
#	35502
#	54210
#	73870
#	88832
#	107015
#	121505
#	142842
#	159815
#
# Disc length: 2297 seconds
#
# Revision: 3
# Processed by: cddbd v1.5.1PL2 Copyright (c) Steve Scherf et al.
# Submitted via: CDex 1.51
#
DISCID=7308f70a
DTITLE=Lowell Fulson - It's A Good Day
DYEAR=1900
DGENRE=Blues
TTITLE0=Thanks A Lot
TTITLE1=It's A Good Day
TTITLE2=Ten More Shows
TTITLE3=Your Love For Me Is Gone
TTITLE4=I'm Tough
TTITLE5=Keep That Smile
TTITLE6=Slow Down Baby
TTITLE7=Blues And My Guitar
TTITLE8=One More Blues
TTITLE9=Push On
EXTD=Rounder CD 2088\n\nLowell Fulson:  vocal, guitar\nThe Black Top Rhythm Section:  \n   Ron Levy:  piano, organ, synthesizers, leader\n   Lloyd Lambert:  acoustic bass\n   Eugene Ross:  guitar\n   David Lee, Jr.:  drums\nAlvin "Red" Tyler:  tenor saxo
EXTD=phone\nEarl Turbinton:  alto saxophone\nWillie Tee:  synthesizer
EXTT0=
EXTT1=
EXTT2=
EXTT3=
EXTT4=
EXTT5=
EXTT6=
EXTT7=
EXTT8=
EXTT9=
PLAYORDER=
